# xmcd
#
# Track frame offsets: 
#        150
#        12517
#        27188
#        41970
#        56786
#        69008
#        81524
#        97607
#        115048
#        130232
#        145638
#        159461
#
# Disc length: 2299 seconds
#
# Revision: 4
# Processed by: cddbd v1.5.2PL0 Copyright (c) Steve Scherf et al.
# Submitted via: ExactAudioCopyFreeDBPlugin 1.0
#
DISCID=9608f90c
DTITLE=Diana Jones - High Atmosphere
DYEAR=2011
DGENRE=Folk
TTITLE0=High Atmosphere
TTITLE1=I Don't Know
TTITLE2=Sister
TTITLE3=I Told the Man
TTITLE4=Little Lamb
TTITLE5=Poverty
TTITLE6=My Love Is Gone
TTITLE7=Don't Forget Me
TTITLE8=Funeral Singer
TTITLE9=Poor Heart
TTITLE10=Drug for This
TTITLE11=Motherless Children
EXTD=
EXTT0=
EXTT1=
EXTT2=
EXTT3=
EXTT4=
EXTT5=
EXTT6=
EXTT7=
EXTT8=
EXTT9=
EXTT10=
EXTT11=
PLAYORDER=
